<?xml version="1.0" encoding="utf-8"?>
<!-- Generator: Adobe Illustrator 21.1.0, SVG Export Plug-In . SVG Version: 6.00 Build 0)  -->
<svg version="1.1" id="图层_1" xmlns="http://www.w3.org/2000/svg" xmlns:xlink="http://www.w3.org/1999/xlink" x="0px" y="0px"
	 viewBox="0 0 24 23" style="enable-background:new 0 0 24 23;" xml:space="preserve">
<style type="text/css">
	.st0{fill:#F01A15;}
</style>
<title>addred@2x</title>
<desc>Created with Sketch.</desc>
<g id="Oval">
	<path class="st0" d="M12,21.7c-5.8,0-10.5-4.5-10.5-10.1C1.5,6,6.2,1.5,12,1.5c5.8,0,10.5,4.5,10.5,10.1
		C22.5,17.2,17.8,21.7,12,21.7z M12,2.5c-5.2,0-9.5,4.1-9.5,9.1s4.3,9.1,9.5,9.1s9.5-4.1,9.5-9.1S17.2,2.5,12,2.5z"/>
</g>
<g id="Plus">
	<polygon class="st0" points="10.8,10.6 7,10.6 7,13.5 10.8,13.5 10.8,17.3 13.7,17.3 13.7,13.5 17.5,13.5 17.5,10.6 13.7,10.6 
		13.7,6.8 10.8,6.8 	"/>
</g>
</svg>
