<?xml version="1.0" encoding="utf-8"?>
<!-- Generator: Adobe Illustrator 21.1.0, SVG Export Plug-In . SVG Version: 6.00 Build 0)  -->
<svg version="1.1" id="图层_1" xmlns="http://www.w3.org/2000/svg" xmlns:xlink="http://www.w3.org/1999/xlink" x="0px" y="0px"
	 viewBox="0 0 20 18" style="enable-background:new 0 0 20 18;" xml:space="preserve">
<style type="text/css">
	.st0{fill:#F01A15;}
</style>
<title>hotred2@2x</title>
<desc>Created with Sketch.</desc>
<g id="Group-21" transform="translate(1.000000, 1.000000)">
	<g>
		<path id="Shape_19_" class="st0" d="M0,15.6C0,15.6,0,15.6,0,15.6c0-0.2,0.1-0.3,0.1-0.4c0-0.2,0.1-0.3,0.2-0.4
			c0.2-0.2,0.4-0.4,0.7-0.7c0.4-0.4,0.9-0.8,1.4-1.1c0.4-0.2,0.8-0.5,1-0.8c0.5-0.6,0.6-1.3,0.7-2c0-0.7,0.1-1.3,0.1-2
			c0,0,0-0.1-0.1-0.1C3.7,7.5,3.1,6.9,2.5,6.3C2.4,6.2,2.4,6.1,2.3,6c-0.2-0.3-0.2-0.6,0-0.8C2.4,5,2.5,4.9,2.7,4.8
			c0.2-0.2,0.4-0.3,0.6-0.4c0.1-0.1,0.3-0.2,0.4-0.3c0.2-0.2,0.2-0.4,0.2-0.6C3.7,3.2,3.6,3,3.5,2.8C3.3,2.4,3,1.9,2.8,1.4
			C2.5,1,2.5,0.5,2.5,0.1C2.6,0.1,2.7,0,2.7,0c0,0,0,0,0,0c0,0,0,0,0,0c0.3,0.3,0.6,0.7,0.8,1c0.5,0.7,1,1.4,1.4,2.1
			c0.1,0.2,0.3,0.4,0.6,0.5c0.2,0.1,0.5,0.2,0.7,0.3c0.5,0.2,0.8,0.5,0.9,1c0.1,0.4,0.1,0.8,0.2,1.3c0,0.1,0,0.3,0,0.5
			c0,0.3,0,0.6,0,1c0,0.1,0,0.3,0,0.4c0,0.5-0.1,1.1-0.1,1.6c0,0.5-0.1,0.9-0.2,1.4c-0.3,1.5-1.1,2.7-2.3,3.7
			c-0.7,0.5-1.4,0.8-2.3,1.1c-0.5,0.1-1,0.2-1.4,0.3c0,0-0.1,0-0.1,0c-0.1,0-0.3-0.1-0.4-0.1C0.5,15.8,0.3,15.7,0,15.6z M5.9,7.6
			C6,7.5,6.1,7.3,6.2,7.1c0.1-0.3,0.2-0.5,0.2-0.8c0.1-0.2,0.1-0.5,0.1-0.7c0-0.3-0.1-0.5-0.4-0.6C5.8,4.9,5.5,5,5.1,5.1
			C5.1,5.2,5,5.2,5,5.3C4.9,5.4,4.9,5.6,5,5.7c0.1,0,0.1,0.1,0.2,0.1c0.1,0,0.2,0.1,0.3,0.1C5.8,6,6,6.2,6,6.6
			c0,0.1-0.1,0.2-0.1,0.3C5.9,7.1,5.9,7.4,5.9,7.6C5.9,7.6,5.9,7.6,5.9,7.6z M3,14.5c0-0.1,0-0.2-0.1-0.2c-0.6-0.2-1.1,0-1.5,0.5
			c0,0,0,0.1,0,0.2c0,0,0.1,0.1,0.1,0.1C2,15,2.4,14.8,2.9,14.6C2.9,14.6,2.9,14.6,3,14.5z"/>
		<path id="Shape_18_" class="st0" d="M10,15.6C10,15.6,10,15.6,10,15.6c0-0.2,0.1-0.3,0.1-0.4c0-0.2,0.1-0.3,0.2-0.4
			c0.2-0.2,0.4-0.4,0.7-0.7c0.4-0.4,0.9-0.8,1.4-1.1c0.4-0.2,0.8-0.5,1-0.8c0.5-0.6,0.6-1.3,0.7-2c0-0.7,0.1-1.3,0.1-2
			c0,0,0-0.1-0.1-0.1c-0.6-0.6-1.1-1.2-1.7-1.8c-0.1-0.1-0.2-0.2-0.2-0.3c-0.2-0.3-0.2-0.6,0-0.8c0.1-0.1,0.2-0.2,0.3-0.3
			c0.2-0.2,0.4-0.3,0.6-0.4c0.1-0.1,0.3-0.2,0.4-0.3c0.2-0.2,0.2-0.4,0.2-0.6c-0.1-0.2-0.2-0.4-0.3-0.6c-0.3-0.5-0.5-1-0.8-1.4
			c-0.2-0.4-0.2-0.9-0.3-1.3c0.1,0,0.2-0.1,0.3-0.1c0,0,0,0,0,0c0,0,0,0,0,0c0.3,0.3,0.6,0.7,0.8,1c0.5,0.7,1,1.4,1.4,2.1
			c0.1,0.2,0.3,0.4,0.6,0.5c0.2,0.1,0.5,0.2,0.7,0.3c0.5,0.2,0.8,0.5,0.9,1c0.1,0.4,0.1,0.8,0.2,1.3c0,0.1,0,0.3,0,0.5
			c0,0.3,0,0.6,0,1c0,0.1,0,0.3,0,0.4c0,0.5-0.1,1.1-0.1,1.6c0,0.5-0.1,0.9-0.2,1.4c-0.3,1.5-1.1,2.7-2.3,3.7
			c-0.7,0.5-1.4,0.8-2.3,1.1c-0.5,0.1-1,0.2-1.4,0.3c0,0-0.1,0-0.1,0c-0.1,0-0.3-0.1-0.4-0.1C10.5,15.8,10.3,15.7,10,15.6z
			 M15.9,7.6c0.1-0.2,0.2-0.4,0.3-0.6c0.1-0.3,0.2-0.5,0.2-0.8c0.1-0.2,0.1-0.5,0.1-0.7c0-0.3-0.1-0.5-0.4-0.6
			c-0.3-0.1-0.7-0.1-1,0.1c-0.1,0-0.1,0.1-0.2,0.2c-0.1,0.1-0.1,0.3,0.1,0.4c0.1,0,0.1,0.1,0.2,0.1c0.1,0,0.2,0.1,0.3,0.1
			C15.8,6,16,6.2,16,6.6c0,0.1-0.1,0.2-0.1,0.3C15.9,7.1,15.9,7.4,15.9,7.6C15.9,7.6,15.9,7.6,15.9,7.6z M13,14.5
			c0-0.1,0-0.2-0.1-0.2c-0.6-0.2-1.1,0-1.5,0.5c0,0,0,0.1,0,0.2c0,0,0.1,0.1,0.1,0.1c0.5-0.1,0.9-0.2,1.4-0.4
			C12.9,14.6,12.9,14.6,13,14.5z"/>
	</g>
</g>
</svg>
