<?xml version="1.0" encoding="utf-8"?>
<!-- Generator: Adobe Illustrator 21.1.0, SVG Export Plug-In . SVG Version: 6.00 Build 0)  -->
<svg version="1.1" id="图层_1" xmlns="http://www.w3.org/2000/svg" xmlns:xlink="http://www.w3.org/1999/xlink" x="0px" y="0px"
	 viewBox="0 0 47 19" style="enable-background:new 0 0 47 19;" xml:space="preserve">
<style type="text/css">
	.st0{fill:#F01A15;}
</style>
<title>hot5red@3x</title>
<desc>Created with Sketch.</desc>
<g id="Shape">
	<path class="st0" d="M1,17.6C1,17.6,1,17.6,1,17.6c0-0.2,0.1-0.3,0.1-0.4c0-0.2,0.1-0.3,0.2-0.4c0.2-0.2,0.4-0.4,0.7-0.7
		c0.4-0.4,0.9-0.8,1.4-1.1c0.4-0.2,0.8-0.5,1-0.8c0.5-0.6,0.6-1.3,0.7-2c0-0.7,0.1-1.3,0.1-2c0,0,0-0.1-0.1-0.1
		C4.7,9.5,4.1,8.9,3.5,8.3C3.4,8.2,3.4,8.1,3.3,8c-0.2-0.3-0.2-0.6,0-0.8C3.4,7,3.5,6.9,3.7,6.8c0.2-0.2,0.4-0.3,0.6-0.4
		c0.1-0.1,0.3-0.2,0.4-0.3c0.2-0.2,0.2-0.4,0.2-0.6C4.7,5.2,4.6,5,4.5,4.8C4.3,4.4,4,3.9,3.8,3.4C3.5,3,3.5,2.5,3.5,2.1
		C3.6,2.1,3.7,2,3.7,2c0,0,0,0,0,0c0,0,0,0,0,0c0.3,0.3,0.6,0.7,0.8,1c0.5,0.7,1,1.4,1.4,2.1c0.1,0.2,0.3,0.4,0.6,0.5
		c0.2,0.1,0.5,0.2,0.7,0.3c0.5,0.2,0.8,0.5,0.9,1c0.1,0.4,0.1,0.8,0.2,1.3c0,0.1,0,0.3,0,0.5c0,0.3,0,0.6,0,1c0,0.1,0,0.3,0,0.4
		c0,0.5-0.1,1.1-0.1,1.6c0,0.5-0.1,0.9-0.2,1.4c-0.3,1.5-1.1,2.7-2.3,3.7c-0.7,0.5-1.4,0.8-2.3,1.1c-0.5,0.1-1,0.2-1.4,0.3
		c0,0-0.1,0-0.1,0c-0.1,0-0.3-0.1-0.4-0.1C1.5,17.8,1.3,17.7,1,17.6z M6.9,9.6C7,9.5,7.1,9.3,7.2,9.1c0.1-0.3,0.2-0.5,0.2-0.8
		c0.1-0.2,0.1-0.5,0.1-0.7c0-0.3-0.1-0.5-0.4-0.6C6.8,6.9,6.5,7,6.1,7.1C6.1,7.2,6,7.2,6,7.3C5.9,7.4,5.9,7.6,6,7.7
		c0.1,0,0.1,0.1,0.2,0.1c0.1,0,0.2,0.1,0.3,0.1C6.8,8,7,8.2,7,8.6c0,0.1-0.1,0.2-0.1,0.3C6.9,9.1,6.9,9.4,6.9,9.6
		C6.9,9.6,6.9,9.6,6.9,9.6z M4,16.5c0-0.1,0-0.2-0.1-0.2c-0.6-0.2-1.1,0-1.5,0.5c0,0,0,0.1,0,0.2c0,0,0.1,0.1,0.1,0.1
		C3,17,3.4,16.8,3.9,16.6C3.9,16.6,3.9,16.6,4,16.5z"/>
</g>
<g id="Shape_1_">
	<path class="st0" d="M11,17.6C11,17.6,11,17.6,11,17.6c0-0.2,0.1-0.3,0.1-0.4c0-0.2,0.1-0.3,0.2-0.4c0.2-0.2,0.4-0.4,0.7-0.7
		c0.4-0.4,0.9-0.8,1.4-1.1c0.4-0.2,0.8-0.5,1-0.8c0.5-0.6,0.6-1.3,0.7-2c0-0.7,0.1-1.3,0.1-2c0,0,0-0.1-0.1-0.1
		c-0.6-0.6-1.1-1.2-1.7-1.8c-0.1-0.1-0.2-0.2-0.2-0.3c-0.2-0.3-0.2-0.6,0-0.8c0.1-0.1,0.2-0.2,0.3-0.3c0.2-0.2,0.4-0.3,0.6-0.4
		c0.1-0.1,0.3-0.2,0.4-0.3c0.2-0.2,0.2-0.4,0.2-0.6c-0.1-0.2-0.2-0.4-0.3-0.6c-0.3-0.5-0.5-1-0.8-1.4c-0.2-0.4-0.2-0.9-0.3-1.3
		c0.1,0,0.2-0.1,0.3-0.1c0,0,0,0,0,0c0,0,0,0,0,0c0.3,0.3,0.6,0.7,0.8,1c0.5,0.7,1,1.4,1.4,2.1c0.1,0.2,0.3,0.4,0.6,0.5
		c0.2,0.1,0.5,0.2,0.7,0.3c0.5,0.2,0.8,0.5,0.9,1c0.1,0.4,0.1,0.8,0.2,1.3c0,0.1,0,0.3,0,0.5c0,0.3,0,0.6,0,1c0,0.1,0,0.3,0,0.4
		c0,0.5-0.1,1.1-0.1,1.6c0,0.5-0.1,0.9-0.2,1.4c-0.3,1.5-1.1,2.7-2.3,3.7c-0.7,0.5-1.4,0.8-2.3,1.1c-0.5,0.1-1,0.2-1.4,0.3
		c0,0-0.1,0-0.1,0c-0.1,0-0.3-0.1-0.4-0.1C11.5,17.8,11.3,17.7,11,17.6z M16.9,9.6c0.1-0.2,0.2-0.4,0.3-0.6c0.1-0.3,0.2-0.5,0.2-0.8
		c0.1-0.2,0.1-0.5,0.1-0.7c0-0.3-0.1-0.5-0.4-0.6c-0.3-0.1-0.7-0.1-1,0.1c-0.1,0-0.1,0.1-0.2,0.2c-0.1,0.1-0.1,0.3,0.1,0.4
		c0.1,0,0.1,0.1,0.2,0.1c0.1,0,0.2,0.1,0.3,0.1C16.8,8,17,8.2,17,8.6c0,0.1-0.1,0.2-0.1,0.3C16.9,9.1,16.9,9.4,16.9,9.6
		C16.9,9.6,16.9,9.6,16.9,9.6z M14,16.5c0-0.1,0-0.2-0.1-0.2c-0.6-0.2-1.1,0-1.5,0.5c0,0,0,0.1,0,0.2c0,0,0.1,0.1,0.1,0.1
		c0.5-0.1,0.9-0.2,1.4-0.4C13.9,16.6,13.9,16.6,14,16.5z"/>
</g>
<g id="Shape_2_">
	<path class="st0" d="M20,17.6C20,17.6,20,17.6,20,17.6c0-0.2,0.1-0.3,0.1-0.4c0-0.2,0.1-0.3,0.2-0.4c0.2-0.2,0.4-0.4,0.7-0.7
		c0.4-0.4,0.9-0.8,1.4-1.1c0.4-0.2,0.8-0.5,1-0.8c0.5-0.6,0.6-1.3,0.7-2c0-0.7,0.1-1.3,0.1-2c0,0,0-0.1-0.1-0.1
		c-0.6-0.6-1.1-1.2-1.7-1.8c-0.1-0.1-0.2-0.2-0.2-0.3c-0.2-0.3-0.2-0.6,0-0.8c0.1-0.1,0.2-0.2,0.3-0.3c0.2-0.2,0.4-0.3,0.6-0.4
		c0.1-0.1,0.3-0.2,0.4-0.3c0.2-0.2,0.2-0.4,0.2-0.6c-0.1-0.2-0.2-0.4-0.3-0.6c-0.3-0.5-0.5-1-0.8-1.4c-0.2-0.4-0.2-0.9-0.3-1.3
		c0.1,0,0.2-0.1,0.3-0.1c0,0,0,0,0,0c0,0,0,0,0,0c0.3,0.3,0.6,0.7,0.8,1c0.5,0.7,1,1.4,1.4,2.1c0.1,0.2,0.3,0.4,0.6,0.5
		c0.2,0.1,0.5,0.2,0.7,0.3c0.5,0.2,0.8,0.5,0.9,1c0.1,0.4,0.1,0.8,0.2,1.3c0,0.1,0,0.3,0,0.5c0,0.3,0,0.6,0,1c0,0.1,0,0.3,0,0.4
		c0,0.5-0.1,1.1-0.1,1.6c0,0.5-0.1,0.9-0.2,1.4c-0.3,1.5-1.1,2.7-2.3,3.7c-0.7,0.5-1.4,0.8-2.3,1.1c-0.5,0.1-1,0.2-1.4,0.3
		c0,0-0.1,0-0.1,0c-0.1,0-0.3-0.1-0.4-0.1C20.5,17.8,20.3,17.7,20,17.6z M25.9,9.6c0.1-0.2,0.2-0.4,0.3-0.6c0.1-0.3,0.2-0.5,0.2-0.8
		c0.1-0.2,0.1-0.5,0.1-0.7c0-0.3-0.1-0.5-0.4-0.6c-0.3-0.1-0.7-0.1-1,0.1c-0.1,0-0.1,0.1-0.2,0.2c-0.1,0.1-0.1,0.3,0.1,0.4
		c0.1,0,0.1,0.1,0.2,0.1c0.1,0,0.2,0.1,0.3,0.1C25.8,8,26,8.2,26,8.6c0,0.1-0.1,0.2-0.1,0.3C25.9,9.1,25.9,9.4,25.9,9.6
		C25.9,9.6,25.9,9.6,25.9,9.6z M23,16.5c0-0.1,0-0.2-0.1-0.2c-0.6-0.2-1.1,0-1.5,0.5c0,0,0,0.1,0,0.2c0,0,0.1,0.1,0.1,0.1
		c0.5-0.1,0.9-0.2,1.4-0.4C22.9,16.6,22.9,16.6,23,16.5z"/>
</g>
<g id="Shape_3_">
	<path class="st0" d="M28,17.6C28,17.6,28,17.6,28,17.6c0-0.2,0.1-0.3,0.1-0.4c0-0.2,0.1-0.3,0.2-0.4c0.2-0.2,0.4-0.4,0.7-0.7
		c0.4-0.4,0.9-0.8,1.4-1.1c0.4-0.2,0.8-0.5,1-0.8c0.5-0.6,0.6-1.3,0.7-2c0-0.7,0.1-1.3,0.1-2c0,0,0-0.1-0.1-0.1
		c-0.6-0.6-1.1-1.2-1.7-1.8c-0.1-0.1-0.2-0.2-0.2-0.3c-0.2-0.3-0.2-0.6,0-0.8c0.1-0.1,0.2-0.2,0.3-0.3c0.2-0.2,0.4-0.3,0.6-0.4
		c0.1-0.1,0.3-0.2,0.4-0.3c0.2-0.2,0.2-0.4,0.2-0.6c-0.1-0.2-0.2-0.4-0.3-0.6c-0.3-0.5-0.5-1-0.8-1.4c-0.2-0.4-0.2-0.9-0.3-1.3
		c0.1,0,0.2-0.1,0.3-0.1c0,0,0,0,0,0c0,0,0,0,0,0c0.3,0.3,0.6,0.7,0.8,1c0.5,0.7,1,1.4,1.4,2.1c0.1,0.2,0.3,0.4,0.6,0.5
		c0.2,0.1,0.5,0.2,0.7,0.3c0.5,0.2,0.8,0.5,0.9,1c0.1,0.4,0.1,0.8,0.2,1.3c0,0.1,0,0.3,0,0.5c0,0.3,0,0.6,0,1c0,0.1,0,0.3,0,0.4
		c0,0.5-0.1,1.1-0.1,1.6c0,0.5-0.1,0.9-0.2,1.4c-0.3,1.5-1.1,2.7-2.3,3.7c-0.7,0.5-1.4,0.8-2.3,1.1c-0.5,0.1-1,0.2-1.4,0.3
		c0,0-0.1,0-0.1,0c-0.1,0-0.3-0.1-0.4-0.1C28.5,17.8,28.3,17.7,28,17.6z M33.9,9.6c0.1-0.2,0.2-0.4,0.3-0.6c0.1-0.3,0.2-0.5,0.2-0.8
		c0.1-0.2,0.1-0.5,0.1-0.7c0-0.3-0.1-0.5-0.4-0.6c-0.3-0.1-0.7-0.1-1,0.1c-0.1,0-0.1,0.1-0.2,0.2c-0.1,0.1-0.1,0.3,0.1,0.4
		c0.1,0,0.1,0.1,0.2,0.1c0.1,0,0.2,0.1,0.3,0.1C33.8,8,34,8.2,34,8.6c0,0.1-0.1,0.2-0.1,0.3C33.9,9.1,33.9,9.4,33.9,9.6
		C33.9,9.6,33.9,9.6,33.9,9.6z M31,16.5c0-0.1,0-0.2-0.1-0.2c-0.6-0.2-1.1,0-1.5,0.5c0,0,0,0.1,0,0.2c0,0,0.1,0.1,0.1,0.1
		c0.5-0.1,0.9-0.2,1.4-0.4C30.9,16.6,30.9,16.6,31,16.5z"/>
</g>
<g id="Shape_4_">
	<path class="st0" d="M38,17.6C38,17.6,38,17.6,38,17.6c0-0.2,0.1-0.3,0.1-0.4c0-0.2,0.1-0.3,0.2-0.4c0.2-0.2,0.4-0.4,0.7-0.7
		c0.4-0.4,0.9-0.8,1.4-1.1c0.4-0.2,0.8-0.5,1-0.8c0.5-0.6,0.6-1.3,0.7-2c0-0.7,0.1-1.3,0.1-2c0,0,0-0.1-0.1-0.1
		c-0.6-0.6-1.1-1.2-1.7-1.8c-0.1-0.1-0.2-0.2-0.2-0.3c-0.2-0.3-0.2-0.6,0-0.8c0.1-0.1,0.2-0.2,0.3-0.3c0.2-0.2,0.4-0.3,0.6-0.4
		c0.1-0.1,0.3-0.2,0.4-0.3c0.2-0.2,0.2-0.4,0.2-0.6c-0.1-0.2-0.2-0.4-0.3-0.6c-0.3-0.5-0.5-1-0.8-1.4c-0.2-0.4-0.2-0.9-0.3-1.3
		c0.1,0,0.2-0.1,0.3-0.1c0,0,0,0,0,0c0,0,0,0,0,0c0.3,0.3,0.6,0.7,0.8,1c0.5,0.7,1,1.4,1.4,2.1c0.1,0.2,0.3,0.4,0.6,0.5
		c0.2,0.1,0.5,0.2,0.7,0.3c0.5,0.2,0.8,0.5,0.9,1c0.1,0.4,0.1,0.8,0.2,1.3c0,0.1,0,0.3,0,0.5c0,0.3,0,0.6,0,1c0,0.1,0,0.3,0,0.4
		c0,0.5-0.1,1.1-0.1,1.6c0,0.5-0.1,0.9-0.2,1.4c-0.3,1.5-1.1,2.7-2.3,3.7c-0.7,0.5-1.4,0.8-2.3,1.1c-0.5,0.1-1,0.2-1.4,0.3
		c0,0-0.1,0-0.1,0c-0.1,0-0.3-0.1-0.4-0.1C38.5,17.8,38.3,17.7,38,17.6z M43.9,9.6c0.1-0.2,0.2-0.4,0.3-0.6c0.1-0.3,0.2-0.5,0.2-0.8
		c0.1-0.2,0.1-0.5,0.1-0.7c0-0.3-0.1-0.5-0.4-0.6c-0.3-0.1-0.7-0.1-1,0.1c-0.1,0-0.1,0.1-0.2,0.2c-0.1,0.1-0.1,0.3,0.1,0.4
		c0.1,0,0.1,0.1,0.2,0.1c0.1,0,0.2,0.1,0.3,0.1C43.8,8,44,8.2,44,8.6c0,0.1-0.1,0.2-0.1,0.3C43.9,9.1,43.9,9.4,43.9,9.6
		C43.9,9.6,43.9,9.6,43.9,9.6z M41,16.5c0-0.1,0-0.2-0.1-0.2c-0.6-0.2-1.1,0-1.5,0.5c0,0,0,0.1,0,0.2c0,0,0.1,0.1,0.1,0.1
		c0.5-0.1,0.9-0.2,1.4-0.4C40.9,16.6,40.9,16.6,41,16.5z"/>
</g>
</svg>
