<?xml version="1.0" encoding="UTF-8"?>
<svg width="250px" height="367px" viewBox="0 0 250 367" version="1.1" xmlns="http://www.w3.org/2000/svg" xmlns:xlink="http://www.w3.org/1999/xlink">
    <!-- Generator: Sketch 46 (44423) - http://www.bohemiancoding.com/sketch -->
    <title>08-餐饮  下单@2x</title>
    <desc>Created with Sketch.</desc>
    <defs></defs>
    <g id="Page-1" stroke="none" stroke-width="1" fill="none" fill-rule="evenodd">
        <g id="08-餐饮--下单" transform="translate(-63.000000, -73.000000)">
            <g id="菜单主体" transform="translate(-2.000000, 68.000000)">
                <g id="横版菜单条">
                    <g id="以点菜单" transform="translate(0.000000, 1.000000)"></g>
                </g>
            </g>
            <g id="tableware-餐具" transform="translate(118.000000, 154.000000)">
                <circle id="Oval-2" fill="#EEEEEE" cx="70" cy="70" r="70"></circle>
                <path d="M47.7154,32.3960604 C47.7154,31.4679532 48.1756,31 49.1038,31 C50.032,31 50.5,31.4679532 50.5,32.3960604 L50.5,46.3254675 C50.5,48.7588242 49.6888,50.880212 48.0664,52.6818318 C46.4362,54.4756525 44.4628,55.5441455 42.1461999,55.8951105 L42.1461999,107.59614 C42.1461999,108.532047 41.6782,108.992201 40.75,108.992201 C39.8218,108.992201 39.3538,108.532047 39.3538,107.59614 L39.3538,55.8951105 C37.0372,55.5441455 35.0638,54.4756525 33.4336,52.6740326 C31.8112,50.8724127 31,48.7588241 31,46.3176682 L31,32.3960604 C31,31.4679532 31.468,31 32.3961999,31 C33.3243999,31 33.7924,31.4679532 33.7924,32.3960604 L33.7924,46.3254675 C33.7924,47.9555045 34.3149999,49.3983601 35.3601999,50.6774322 C36.3976,51.9487051 37.7314,52.759824 39.3538,53.1107889 L39.3538,32.3960604 C39.3538,31.4679532 39.8218,31 40.75,31 C41.6782,31 42.1462,31.4679532 42.1462,32.3960604 L42.1462,53.1107889 C43.7685999,52.759824 45.1024,51.9487051 46.1476,50.669633 C47.1927999,49.3905609 47.7153999,47.9477052 47.7153999,46.3176683 L47.7154,32.3960604 Z M71.3962,31 C72.3244,31 72.7924,31.4679532 72.7924,32.3960604 L72.7924,107.60394 C72.7924,108.539846 72.3244001,109 71.3962,109 C70.468,109 70,108.532047 70,107.59614 L70,78.1774822 C66.7474,77.7173282 64.0798,75.8299169 61.9894,72.5230477 C59.899,69.2161784 58.8538,65.2385761 58.8538,60.5980402 C58.8538,52.1280872 60.0472,45.0775922 62.4262,39.4465554 C64.8052,33.8155184 67.7926,31 71.3962,31 Z M61.6462,60.5980402 C61.6462,64.4274572 62.4262,67.7109289 63.994,70.4328567 C65.5618,73.1625837 67.5664,74.8160183 70,75.3931606 L70,34.1352865 C67.7926,35.180382 65.8504,38.1362864 64.1656,43.0107989 C62.4808,47.8853115 61.6462,53.750325 61.6462,60.5980402 Z M109,49.1019898 C109,53.39936 107.986,56.9324067 105.9502,59.7245275 C103.9222,62.5088491 101.2234,64.0764924 97.8538001,64.4274572 L97.8538001,107.60394 C97.8538001,108.539846 97.3858001,109 96.4576,109 C95.5294001,109 95.0614,108.539846 95.0614,107.60394 L95.0614,64.4274572 C91.7074001,64.0764924 89.0086,62.5088491 86.9728,59.7245275 C84.9448,56.940206 83.923,53.39936 83.923,49.1019898 C83.923,44.1182881 85.1398,39.8521147 87.5812,36.3034696 C90.0226,32.770423 92.9788,31 96.4654,31 C99.9442,31 102.9082,32.770423 105.3418,36.3112689 C107.7832,39.8521148 109,44.1182882 109,49.1019898 Z M86.7154,49.1019898 C86.7154,52.9314068 87.589,55.9809018 89.3284,58.2426757 C91.0678001,60.5044495 93.4468001,61.6353364 96.4654001,61.6353364 C99.4840001,61.6353364 101.863,60.5044495 103.6024,58.2426757 C105.3418,55.9809018 106.2154,52.9314068 106.2154,49.1019898 C106.2154,44.8124187 105.256,41.1779822 103.345,38.2220778 C101.4262,35.2583741 99.1408002,33.7843216 96.4654002,33.7843216 C93.7978002,33.7843216 91.5046002,35.2661734 89.5858002,38.2220778 C87.6748,41.1857814 86.7154,44.8124187 86.7154,49.1019898 Z" id="Shape" fill="#9B9B9B" fill-rule="nonzero"></path>
            </g>
            <g id="Group-3" transform="translate(93.000000, 284.000000)" fill="#9B9B9B">
                <text id="开始点餐吧" font-family="PingFangSC-Semibold, PingFang SC" font-size="18" font-weight="500">
                    <tspan x="18" y="57">开始点餐吧</tspan>
                </text>
                <text id="Start-a-meal" font-family="PingFangSC-Light, PingFang SC" font-size="16" font-weight="300">
                    <tspan x="114" y="56">Start a meal</tspan>
                </text>
                <g id="手势-左右滑动-01" transform="translate(6.500000, 51.000000) scale(1, -1) translate(-6.500000, -51.000000) translate(0.000000, 42.000000)" fill-rule="nonzero">
                    <path d="M11.4048639,6.49094192 C11.1033359,6.24915898 10.7104358,6.1468662 10.2078891,6.19336292 C10.0982425,5.53310951 9.77844006,4.94725086 8.88299322,4.86355677 C8.45354422,4.82635939 8.13374178,4.8914548 7.91444867,4.96584955 C7.61292065,4.22190205 7.04641347,4.02661583 6.53472956,4.02661583 C6.07786893,4.02661583 5.73979206,4.08241189 5.50222453,4.1475073 L5.50222453,1.51579303 C5.50222453,0.539361936 4.93571734,8.8817842e-14 3.92148673,8.8817842e-14 C2.90725613,8.8817842e-14 2.34074894,0.539361936 2.34074894,1.51579303 L2.34074894,6.98380713 C2.13059305,6.9559091 1.87475109,6.93731041 1.67373242,6.93731041 C0.851383275,6.93731041 0.266601664,7.59756382 0.156955111,8.64838966 C0.147817899,8.68558703 0.0198969213,9.66201812 0.00162249595,10.9453276 C-0.0257891421,12.6936042 0.294013302,13.474749 0.97016704,14.4697788 C1.87475109,15.799585 3.69305642,17.2781806 3.77529133,17.343276 L4.12250541,16.9062069 C4.10423099,16.8876082 2.28592566,15.4183119 1.42702767,14.1536011 C0.805697211,13.2422655 0.531580831,12.5634134 0.558992469,10.9546269 C0.577266895,9.70851484 0.705187872,8.73208375 0.705187872,8.72278441 C0.787422786,7.96023822 1.15291129,7.50457038 1.68286963,7.50457038 C1.92043716,7.50457038 2.19455354,7.53246841 2.34988615,7.56036644 L2.34988615,11.4660908 L2.89811891,11.4660908 L2.89811891,1.51579303 C2.89811891,0.855539622 3.21792136,0.567259967 3.93062395,0.567259967 C4.64332654,0.567259967 4.96312898,0.864838966 4.96312898,1.51579303 L4.96312898,8.22991919 L5.51136174,8.22991919 L5.51136174,4.73336595 C5.68496878,4.67756989 6.03218286,4.5938758 6.54386677,4.5938758 C6.98245298,4.5938758 7.5763718,4.76126398 7.5763718,6.24915898 L7.5763718,8.49030082 L8.12460456,8.49030082 L8.12460456,6.24915898 C8.12460456,5.97017867 8.10633014,5.72839573 8.06978129,5.50521148 C8.21597669,5.44941542 8.47181865,5.37502067 8.83730715,5.41221804 C9.3764027,5.46801411 9.71447957,5.72839573 9.71447957,6.8908137 L9.71447957,9.30864306 L10.2627123,9.30864306 L10.2627123,6.8908137 L10.2627123,6.7420242 C10.6190636,6.71412617 10.8840428,6.76992223 11.066787,6.92801107 C11.322629,7.13259663 11.4688244,7.5510671 11.5145105,8.19272182 C11.5876082,9.39233716 11.6150198,10.0339919 11.6150198,11.4660908 C11.6150198,14.8696506 9.78757727,16.8690095 9.76930285,16.8876082 L10.1713402,17.2781806 C10.2535751,17.1944865 12.1723898,15.1114335 12.1723898,11.4660908 C12.1723898,10.0153932 12.1449781,9.37373847 12.0718804,8.15552444 C12.00792,7.33718219 11.7977641,6.8071196 11.4048639,6.49094192 Z" id="Shape"></path>
                </g>
            </g>
        </g>
    </g>
</svg>