<?xml version="1.0" encoding="utf-8"?>
<!-- Generator: Adobe Illustrator 21.1.0, SVG Export Plug-In . SVG Version: 6.00 Build 0)  -->
<svg version="1.1" id="图层_1" xmlns="http://www.w3.org/2000/svg" xmlns:xlink="http://www.w3.org/1999/xlink" x="0px" y="0px"
	 viewBox="0 0 21 22" style="enable-background:new 0 0 21 22;" xml:space="preserve">
<style type="text/css">
	.st0{fill:#F01A15;}
</style>
<title>listred@3x</title>
<desc>Created with Sketch.</desc>
<g id="Shape">
	<path class="st0" d="M9.9,19.7H3.5c-0.6,0-1.2-0.4-1.2-1.2V3.5c0-0.6,0.4-1.2,1.2-1.2h12.9c0.3,0,0.6,0.1,0.7,0.3
		c0.1,0.1,0.3,0.4,0.3,0.7v5.5c0,0.3,0.3,0.6,0.6,0.6s0.6-0.3,0.6-0.6V3.4c0-1.3-1-2.4-2.2-2.4H3.2C2,1,1,2,1,3.4v15.2
		C1,20,2,21,3.2,21h6.6c0.3,0,0.6-0.3,0.6-0.6C10.5,20,10.2,19.7,9.9,19.7z M5.5,12.8c-0.3,0-0.6,0.3-0.6,0.6v0.1
		c0,0.3,0.3,0.6,0.6,0.6h5.8c0.3,0,0.6-0.3,0.6-0.6v-0.1c0-0.3-0.3-0.6-0.6-0.6H5.5z M5.4,9.1c-0.3,0-0.6,0.3-0.6,0.6v0.1
		c0,0.3,0.3,0.6,0.6,0.6h9.1c0.3,0,0.6-0.3,0.6-0.6V9.7c0-0.3-0.3-0.6-0.6-0.6H5.4L5.4,9.1z M14.9,5.6c0-0.3-0.3-0.6-0.6-0.6H5.4
		C5.1,5,4.8,5.3,4.8,5.6v0.1c0,0.3,0.3,0.6,0.6,0.6h9.1c0.3,0,0.6-0.3,0.6-0.6V5.6H14.9z M19.9,15.5c-0.1-0.3-0.4-0.4-0.6-0.4h-1
		v-2.5c0-0.4-0.3-0.7-0.7-0.7h-1.5c-0.4,0-0.7,0.3-0.7,0.7v2.7h-0.9c-0.3,0-0.6,0.1-0.6,0.4c-0.1,0.3-0.1,0.6,0,0.7l2.5,3
		c0.1,0.3,0.4,0.4,0.6,0.3c0.3,0,0.4-0.1,0.6-0.3l2.5-3C20,16.1,20,15.8,19.9,15.5L19.9,15.5z"/>
</g>
</svg>
